<svg id="sw-js-blob-svg-3" viewBox="0 0 100 100" xmlns="http://www.w3.org/2000/svg" version="1.1">
    <defs>
        <linearGradient id="sw-gradient" x1="0" x2="1" y1="1" y2="0">
            <stop id="stop1" stop-color="rgba(174.289, 204.42, 255, 1)" offset="0%"></stop>
            <stop id="stop2" stop-color="rgba(0, 255, 69.284, 1)" offset="100%"></stop>
        </linearGradient>
    </defs>
    <path fill="none"
        d="M15.3,-25.5C20.9,-20.3,27.1,-17.8,29,-13.3C30.9,-8.9,28.4,-2.6,25.2,2C22,6.6,18.1,9.5,15,12.8C11.8,16.2,9.4,20.1,6.1,21.5C2.7,22.8,-1.6,21.6,-8.6,22.6C-15.5,23.5,-24.9,26.7,-27.6,23.8C-30.3,20.9,-26.3,12.1,-25.4,4.9C-24.6,-2.3,-26.9,-7.8,-27.3,-14.8C-27.8,-21.8,-26.4,-30.4,-21.5,-35.9C-16.6,-41.4,-8.3,-44,-1.7,-41.3C4.9,-38.7,9.8,-30.7,15.3,-25.5Z"
        width="100%" height="100%" transform="translate(50 50)" stroke-width="1"
        style="transition: all 0.3s ease 0s;" stroke="url(#sw-gradient)"></path>
</svg>